<svg width="698" height="106" viewBox="0 0 698 106" fill="none" xmlns="http://www.w3.org/2000/svg">
<g filter="url(#filter0_d_1_60)">
<mask id="path-1-outside-1_1_60" maskUnits="userSpaceOnUse" x="0" y="0" width="691" height="99" fill="black">
<rect fill="white" width="691" height="99"/>
<path d="M56 2.90909H80.9091L70.3636 66.7273C69.3333 72.7879 66.9394 78.1212 63.1818 82.7273C59.4242 87.303 54.6818 90.8788 48.9545 93.4545C43.2273 96 36.9091 97.2727 30 97.2727C24.0606 97.2727 18.7879 96.2424 14.1818 94.1818C9.60606 92.0909 6.21212 88.8182 4 84.3636C1.81818 79.8788 1.33333 74.0606 2.54545 66.9091H27.8182C27.5152 69.2727 27.5758 71.2576 28 72.8636C28.4242 74.4394 29.2121 75.6364 30.3636 76.4545C31.5152 77.2424 33.0303 77.6364 34.9091 77.6364C36.7879 77.6364 38.4394 77.2273 39.8636 76.4091C41.2879 75.5606 42.4697 74.3333 43.4091 72.7273C44.3485 71.0909 45.0303 69.0909 45.4545 66.7273L56 2.90909ZM175.068 51.0909C173.371 61.2121 170.008 69.697 164.977 76.5455C159.947 83.3939 153.841 88.5606 146.659 92.0455C139.477 95.5303 131.795 97.2727 123.614 97.2727C114.886 97.2727 107.311 95.3788 100.886 91.5909C94.4621 87.803 89.7803 82.2576 86.8409 74.9545C83.9015 67.6515 83.3106 58.7273 85.0682 48.1818C86.7045 38.0606 90.0379 29.5455 95.0682 22.6364C100.098 15.7273 106.235 10.5 113.477 6.95454C120.72 3.40909 128.462 1.63636 136.705 1.63636C145.371 1.63636 152.902 3.54545 159.295 7.36363C165.72 11.1818 170.386 16.7727 173.295 24.1364C176.235 31.5 176.826 40.4848 175.068 51.0909ZM149.614 48.1818C150.462 42.8485 150.523 38.3636 149.795 34.7273C149.068 31.0606 147.538 28.303 145.205 26.4545C142.871 24.5758 139.735 23.6364 135.795 23.6364C131.311 23.6364 127.341 24.7273 123.886 26.9091C120.432 29.0909 117.568 32.2273 115.295 36.3182C113.023 40.4091 111.432 45.3333 110.523 51.0909C109.553 56.4848 109.462 60.9697 110.25 64.5455C111.068 68.1212 112.674 70.803 115.068 72.5909C117.492 74.3788 120.644 75.2727 124.523 75.2727C128.947 75.2727 132.856 74.2121 136.25 72.0909C139.674 69.9697 142.508 66.8939 144.75 62.8636C147.023 58.8333 148.644 53.9394 149.614 48.1818ZM184.386 23.2727L187.841 2.90909H268.75L265.295 23.2727H237.295L225.295 96H200.386L212.386 23.2727H184.386ZM275.239 96H247.966L294.148 2.90909H328.693L343.966 96H316.693L307.602 28.5455H306.875L275.239 96ZM276.33 59.2727H327.602L324.33 78.1818H273.057L276.33 59.2727ZM474.886 37.8182H449.614C449.795 35.6667 449.674 33.7273 449.25 32C448.826 30.2727 448.098 28.7879 447.068 27.5455C446.038 26.2727 444.689 25.303 443.023 24.6364C441.356 23.9697 439.371 23.6364 437.068 23.6364C432.644 23.6364 428.689 24.7424 425.205 26.9545C421.72 29.1364 418.826 32.2727 416.523 36.3636C414.22 40.4242 412.583 45.2727 411.614 50.9091C410.765 56.3636 410.735 60.8939 411.523 64.5C412.341 68.1061 413.932 70.803 416.295 72.5909C418.689 74.3788 421.795 75.2727 425.614 75.2727C428.159 75.2727 430.492 74.9697 432.614 74.3636C434.765 73.7576 436.674 72.8939 438.341 71.7727C440.038 70.6212 441.477 69.2576 442.659 67.6818C443.871 66.0758 444.795 64.303 445.432 62.3636H470.886C469.917 66.303 468.189 70.3333 465.705 74.4545C463.22 78.5455 460.008 82.3182 456.068 85.7727C452.129 89.197 447.492 91.9697 442.159 94.0909C436.826 96.2121 430.826 97.2727 424.159 97.2727C415.432 97.2727 407.902 95.3636 401.568 91.5455C395.265 87.7273 390.689 82.1515 387.841 74.8182C385.023 67.4848 384.462 58.5455 386.159 48C387.856 37.8182 391.205 29.2879 396.205 22.4091C401.205 15.5303 407.28 10.3485 414.432 6.86363C421.583 3.37878 429.189 1.63636 437.25 1.63636C443.341 1.63636 448.795 2.43939 453.614 4.04545C458.462 5.65151 462.538 8 465.841 11.0909C469.174 14.1515 471.629 17.9242 473.205 22.4091C474.78 26.8939 475.341 32.0303 474.886 37.8182ZM517.534 2.90909L502.08 96H476.807L492.261 2.90909H517.534ZM610.057 2.90909L594.602 96H573.511L548.057 47.0909H547.511L539.33 96H514.057L529.511 2.90909H550.966L576.057 51.6364H576.784L584.784 2.90909H610.057ZM606.557 96L622.011 2.90909H689.102L685.648 23.2727H643.83L641.284 39.2727H679.648L676.193 59.6364H637.83L635.284 75.6364H676.92L673.466 96H606.557Z"/>
</mask>
<path d="M56 2.90909H80.9091L70.3636 66.7273C69.3333 72.7879 66.9394 78.1212 63.1818 82.7273C59.4242 87.303 54.6818 90.8788 48.9545 93.4545C43.2273 96 36.9091 97.2727 30 97.2727C24.0606 97.2727 18.7879 96.2424 14.1818 94.1818C9.60606 92.0909 6.21212 88.8182 4 84.3636C1.81818 79.8788 1.33333 74.0606 2.54545 66.9091H27.8182C27.5152 69.2727 27.5758 71.2576 28 72.8636C28.4242 74.4394 29.2121 75.6364 30.3636 76.4545C31.5152 77.2424 33.0303 77.6364 34.9091 77.6364C36.7879 77.6364 38.4394 77.2273 39.8636 76.4091C41.2879 75.5606 42.4697 74.3333 43.4091 72.7273C44.3485 71.0909 45.0303 69.0909 45.4545 66.7273L56 2.90909ZM175.068 51.0909C173.371 61.2121 170.008 69.697 164.977 76.5455C159.947 83.3939 153.841 88.5606 146.659 92.0455C139.477 95.5303 131.795 97.2727 123.614 97.2727C114.886 97.2727 107.311 95.3788 100.886 91.5909C94.4621 87.803 89.7803 82.2576 86.8409 74.9545C83.9015 67.6515 83.3106 58.7273 85.0682 48.1818C86.7045 38.0606 90.0379 29.5455 95.0682 22.6364C100.098 15.7273 106.235 10.5 113.477 6.95454C120.72 3.40909 128.462 1.63636 136.705 1.63636C145.371 1.63636 152.902 3.54545 159.295 7.36363C165.72 11.1818 170.386 16.7727 173.295 24.1364C176.235 31.5 176.826 40.4848 175.068 51.0909ZM149.614 48.1818C150.462 42.8485 150.523 38.3636 149.795 34.7273C149.068 31.0606 147.538 28.303 145.205 26.4545C142.871 24.5758 139.735 23.6364 135.795 23.6364C131.311 23.6364 127.341 24.7273 123.886 26.9091C120.432 29.0909 117.568 32.2273 115.295 36.3182C113.023 40.4091 111.432 45.3333 110.523 51.0909C109.553 56.4848 109.462 60.9697 110.25 64.5455C111.068 68.1212 112.674 70.803 115.068 72.5909C117.492 74.3788 120.644 75.2727 124.523 75.2727C128.947 75.2727 132.856 74.2121 136.25 72.0909C139.674 69.9697 142.508 66.8939 144.75 62.8636C147.023 58.8333 148.644 53.9394 149.614 48.1818ZM184.386 23.2727L187.841 2.90909H268.75L265.295 23.2727H237.295L225.295 96H200.386L212.386 23.2727H184.386ZM275.239 96H247.966L294.148 2.90909H328.693L343.966 96H316.693L307.602 28.5455H306.875L275.239 96ZM276.33 59.2727H327.602L324.33 78.1818H273.057L276.33 59.2727ZM474.886 37.8182H449.614C449.795 35.6667 449.674 33.7273 449.25 32C448.826 30.2727 448.098 28.7879 447.068 27.5455C446.038 26.2727 444.689 25.303 443.023 24.6364C441.356 23.9697 439.371 23.6364 437.068 23.6364C432.644 23.6364 428.689 24.7424 425.205 26.9545C421.72 29.1364 418.826 32.2727 416.523 36.3636C414.22 40.4242 412.583 45.2727 411.614 50.9091C410.765 56.3636 410.735 60.8939 411.523 64.5C412.341 68.1061 413.932 70.803 416.295 72.5909C418.689 74.3788 421.795 75.2727 425.614 75.2727C428.159 75.2727 430.492 74.9697 432.614 74.3636C434.765 73.7576 436.674 72.8939 438.341 71.7727C440.038 70.6212 441.477 69.2576 442.659 67.6818C443.871 66.0758 444.795 64.303 445.432 62.3636H470.886C469.917 66.303 468.189 70.3333 465.705 74.4545C463.22 78.5455 460.008 82.3182 456.068 85.7727C452.129 89.197 447.492 91.9697 442.159 94.0909C436.826 96.2121 430.826 97.2727 424.159 97.2727C415.432 97.2727 407.902 95.3636 401.568 91.5455C395.265 87.7273 390.689 82.1515 387.841 74.8182C385.023 67.4848 384.462 58.5455 386.159 48C387.856 37.8182 391.205 29.2879 396.205 22.4091C401.205 15.5303 407.28 10.3485 414.432 6.86363C421.583 3.37878 429.189 1.63636 437.25 1.63636C443.341 1.63636 448.795 2.43939 453.614 4.04545C458.462 5.65151 462.538 8 465.841 11.0909C469.174 14.1515 471.629 17.9242 473.205 22.4091C474.78 26.8939 475.341 32.0303 474.886 37.8182ZM517.534 2.90909L502.08 96H476.807L492.261 2.90909H517.534ZM610.057 2.90909L594.602 96H573.511L548.057 47.0909H547.511L539.33 96H514.057L529.511 2.90909H550.966L576.057 51.6364H576.784L584.784 2.90909H610.057ZM606.557 96L622.011 2.90909H689.102L685.648 23.2727H643.83L641.284 39.2727H679.648L676.193 59.6364H637.83L635.284 75.6364H676.92L673.466 96H606.557Z" fill="black"/>
<path d="M56 2.90909V1.90909H55.1517L55.0134 2.74606L56 2.90909ZM80.9091 2.90909L81.8957 3.07212L82.0879 1.90909H80.9091V2.90909ZM70.3636 66.7273L71.3495 66.8949L71.3503 66.8903L70.3636 66.7273ZM63.1818 82.7273L63.9546 83.3619L63.9567 83.3594L63.1818 82.7273ZM48.9545 93.4545L49.3607 94.3684L49.3647 94.3666L48.9545 93.4545ZM14.1818 94.1818L13.7662 95.0914L13.7735 95.0946L14.1818 94.1818ZM4 84.3636L3.10074 84.8011L3.10436 84.8084L4 84.3636ZM2.54545 66.9091V65.9091H1.70068L1.55952 66.742L2.54545 66.9091ZM27.8182 66.9091L28.8101 67.0363L28.9546 65.9091H27.8182V66.9091ZM28 72.8636L27.0332 73.119L27.0344 73.1236L28 72.8636ZM30.3636 76.4545L29.7844 77.2697L29.7916 77.2748L29.799 77.2799L30.3636 76.4545ZM39.8636 76.4091L40.3618 77.2762L40.3686 77.2722L40.3754 77.2682L39.8636 76.4091ZM43.4091 72.7273L44.2723 73.2322L44.2763 73.2251L43.4091 72.7273ZM45.4545 66.7273L46.4389 66.904L46.4412 66.8903L45.4545 66.7273ZM56 3.90909H80.9091V1.90909H56V3.90909ZM79.9225 2.74606L69.377 66.5642L71.3503 66.8903L81.8957 3.07212L79.9225 2.74606ZM69.3778 66.5597C68.3754 72.4559 66.0514 77.6278 62.407 82.0951L63.9567 83.3594C67.8274 78.6146 70.2912 73.1199 71.3495 66.8949L69.3778 66.5597ZM62.409 82.0926C58.7552 86.542 54.1397 90.0261 48.5444 92.5425L49.3647 94.3666C55.2239 91.7315 60.0933 88.064 63.9546 83.3619L62.409 82.0926ZM48.5484 92.5407C42.9616 95.0238 36.7836 96.2727 30 96.2727V98.2727C37.0346 98.2727 43.493 96.9762 49.3607 94.3684L48.5484 92.5407ZM30 96.2727C24.1767 96.2727 19.047 95.2629 14.5902 93.269L13.7735 95.0946C18.5287 97.222 23.9445 98.2727 30 98.2727V96.2727ZM14.5974 93.2723C10.2276 91.2755 7.0045 88.1655 4.89564 83.9189L3.10436 84.8084C5.41974 89.4709 8.9845 92.9063 13.7662 95.0914L14.5974 93.2723ZM4.89924 83.9262C2.8416 79.6966 2.33898 74.1115 3.53139 67.0762L1.55952 66.742C0.327691 74.0098 0.79476 80.061 3.10076 84.8011L4.89924 83.9262ZM2.54545 67.9091H27.8182V65.9091H2.54545V67.9091ZM26.8263 66.7819C26.5134 69.2224 26.565 71.3466 27.0332 73.119L28.9668 72.6082C28.5865 71.1686 28.5169 69.3231 28.8101 67.0363L26.8263 66.7819ZM27.0344 73.1236C27.5091 74.887 28.4147 76.2965 29.7844 77.2697L30.9428 75.6394C30.0095 74.9762 29.3393 73.9918 28.9656 72.6037L27.0344 73.1236ZM29.799 77.2799C31.1655 78.2149 32.8972 78.6364 34.9091 78.6364V76.6364C33.1634 76.6364 31.8648 76.27 30.9283 75.6292L29.799 77.2799ZM34.9091 78.6364C36.9372 78.6364 38.7652 78.1933 40.3618 77.2762L39.3655 75.542C38.1135 76.2612 36.6386 76.6364 34.9091 76.6364V78.6364ZM40.3754 77.2682C41.9619 76.3231 43.2582 74.9659 44.2723 73.2322L42.5459 72.2224C41.6812 73.7007 40.6138 74.7981 39.3518 75.55L40.3754 77.2682ZM44.2763 73.2251C45.2861 71.4663 45.9996 69.3512 46.4388 66.9039L44.4703 66.5506C44.061 68.8306 43.4109 70.7156 42.5418 72.2294L44.2763 73.2251ZM46.4412 66.8903L56.9866 3.07212L55.0134 2.74606L44.4679 66.5642L46.4412 66.8903ZM175.068 51.0909L176.054 51.2563L176.055 51.2544L175.068 51.0909ZM164.977 76.5455L164.171 75.9535V75.9535L164.977 76.5455ZM146.659 92.0455L147.096 92.9451L146.659 92.0455ZM100.886 91.5909L101.394 90.7295L100.886 91.5909ZM86.8409 74.9545L87.7686 74.5812L86.8409 74.9545ZM85.0682 48.1818L86.0546 48.3462L86.0554 48.3414L85.0682 48.1818ZM95.0682 22.6364L94.2598 22.0478L95.0682 22.6364ZM113.477 6.95454L113.038 6.05639L113.477 6.95454ZM159.295 7.36363L158.783 8.2222L158.785 8.22326L159.295 7.36363ZM173.295 24.1364L172.365 24.5038L172.367 24.5071L173.295 24.1364ZM149.614 48.1818L150.6 48.3479L150.601 48.3389L149.614 48.1818ZM149.795 34.7273L148.815 34.9218L148.815 34.9234L149.795 34.7273ZM145.205 26.4545L144.577 27.2335L144.584 27.2384L145.205 26.4545ZM123.886 26.9091L123.352 26.0636L123.886 26.9091ZM110.523 51.0909L111.507 51.2678L111.509 51.2574L111.51 51.2469L110.523 51.0909ZM110.25 64.5455L109.273 64.7606L109.275 64.7685L110.25 64.5455ZM115.068 72.5909L114.47 73.3921L114.475 73.3957L115.068 72.5909ZM136.25 72.0909L135.723 71.2408L135.72 71.2429L136.25 72.0909ZM144.75 62.8636L143.879 62.3724L143.876 62.3774L144.75 62.8636ZM174.082 50.9256C172.406 60.9241 169.092 69.2547 164.171 75.9535L165.783 77.1374C170.923 70.1392 174.337 61.5001 176.054 51.2563L174.082 50.9256ZM164.171 75.9535C159.231 82.6796 153.249 87.7365 146.223 91.1458L147.096 92.9451C154.433 89.3847 160.663 84.1083 165.783 77.1374L164.171 75.9535ZM146.223 91.1458C139.18 94.5629 131.648 96.2727 123.614 96.2727V98.2727C131.943 98.2727 139.774 96.4977 147.096 92.9451L146.223 91.1458ZM123.614 96.2727C115.034 96.2727 107.64 94.4122 101.394 90.7295L100.378 92.4523C106.981 96.3454 114.738 98.2727 123.614 98.2727V96.2727ZM101.394 90.7295C95.1709 87.0601 90.6306 81.6919 87.7686 74.5812L85.9132 75.3279C88.93 82.8233 93.7533 88.546 100.378 92.4523L101.394 90.7295ZM87.7686 74.5812C84.9182 67.4992 84.3168 58.7731 86.0546 48.3462L84.0818 48.0174C82.3044 58.6815 82.8849 67.8038 85.9132 75.3279L87.7686 74.5812ZM86.0554 48.3414C87.6716 38.3446 90.9555 29.9841 95.8766 23.225L94.2598 22.0478C89.1203 29.1068 85.7375 37.7766 84.081 48.0222L86.0554 48.3414ZM95.8766 23.225C100.817 16.4394 106.83 11.3222 113.917 7.8527L113.038 6.05639C105.64 9.67775 99.38 15.0151 94.2598 22.0478L95.8766 23.225ZM113.917 7.8527C121.019 4.37577 128.611 2.63636 136.705 2.63636V0.63636C128.313 0.63636 120.42 2.4424 113.038 6.05639L113.917 7.8527ZM136.705 2.63636C145.221 2.63636 152.568 4.51082 158.783 8.2222L159.808 6.50506C153.235 2.58008 145.522 0.63636 136.705 0.63636V2.63636ZM158.785 8.22326C165.007 11.9213 169.533 17.333 172.365 24.5038L174.226 23.7689C171.24 16.2125 166.433 10.4423 159.806 6.504L158.785 8.22326ZM172.367 24.5071C175.218 31.6512 175.82 40.4395 174.082 50.9274L176.055 51.2544C177.832 40.5302 177.251 31.3488 174.224 23.7656L172.367 24.5071ZM150.601 48.3389C151.461 42.9371 151.535 38.3241 150.776 34.5312L148.815 34.9234C149.511 38.4032 149.464 42.7599 148.626 48.0247L150.601 48.3389ZM150.776 34.5327C150.015 30.6945 148.389 27.7013 145.826 25.6707L144.584 27.2384C146.687 28.9047 148.121 31.4267 148.815 34.9218L150.776 34.5327ZM145.832 25.6757C143.271 23.6142 139.891 22.6364 135.795 22.6364V24.6364C139.579 24.6364 142.471 25.5373 144.577 27.2334L145.832 25.6757ZM135.795 22.6364C131.141 22.6364 126.982 23.7711 123.352 26.0636L124.42 27.7546C127.7 25.6834 131.48 24.6364 135.795 24.6364V22.6364ZM123.352 26.0636C119.737 28.3472 116.763 31.6166 114.421 35.8325L116.17 36.8038C118.373 32.8379 121.127 29.8346 124.42 27.7546L123.352 26.0636ZM114.421 35.8325C112.08 40.0475 110.458 45.089 109.535 50.9349L111.51 51.2469C112.406 45.5777 113.966 40.7707 116.17 36.8038L114.421 35.8325ZM109.539 50.914C108.556 56.3793 108.447 61.0084 109.273 64.7606L111.227 64.3303C110.478 60.931 110.55 56.5904 111.507 51.2678L109.539 50.914ZM109.275 64.7685C110.134 68.5209 111.845 71.432 114.47 73.3921L115.667 71.7897C113.503 70.1741 112.003 67.7215 111.225 64.3224L109.275 64.7685ZM114.475 73.3957C117.115 75.3426 120.492 76.2727 124.523 76.2727V74.2727C120.796 74.2727 117.87 73.4149 115.662 71.7861L114.475 73.3957ZM124.523 76.2727C129.114 76.2727 133.211 75.1697 136.78 72.9389L135.72 71.2429C132.501 73.2545 128.78 74.2727 124.523 74.2727V76.2727ZM136.777 72.941C140.366 70.7178 143.311 67.5072 145.624 63.3498L143.876 62.3774C141.704 66.2807 138.983 69.2216 135.723 71.2408L136.777 72.941ZM145.621 63.3548C147.963 59.2011 149.616 54.1911 150.6 48.3479L148.628 48.0157C147.672 53.6877 146.082 58.4655 143.879 62.3724L145.621 63.3548ZM184.386 23.2727L183.4 23.1055L183.202 24.2727H184.386V23.2727ZM187.841 2.90909V1.90909H186.996L186.855 2.74183L187.841 2.90909ZM268.75 2.90909L269.736 3.07634L269.934 1.90909H268.75V2.90909ZM265.295 23.2727V24.2727H266.14L266.281 23.44L265.295 23.2727ZM237.295 23.2727V22.2727H236.447L236.309 23.1099L237.295 23.2727ZM225.295 96V97H226.144L226.282 96.1628L225.295 96ZM200.386 96L199.4 95.8372L199.208 97H200.386V96ZM212.386 23.2727L213.373 23.4355L213.565 22.2727H212.386V23.2727ZM185.372 23.44L188.827 3.07634L186.855 2.74183L183.4 23.1055L185.372 23.44ZM187.841 3.90909H268.75V1.90909H187.841V3.90909ZM267.764 2.74183L264.31 23.1055L266.281 23.44L269.736 3.07634L267.764 2.74183ZM265.295 22.2727H237.295V24.2727H265.295V22.2727ZM236.309 23.1099L224.309 95.8372L226.282 96.1628L238.282 23.4355L236.309 23.1099ZM225.295 95H200.386V97H225.295V95ZM201.373 96.1628L213.373 23.4355L211.4 23.1099L199.4 95.8372L201.373 96.1628ZM212.386 22.2727H184.386V24.2727H212.386V22.2727ZM275.239 96V97H275.874L276.144 96.4246L275.239 96ZM247.966 96L247.07 95.5556L246.354 97H247.966V96ZM294.148 2.90909V1.90909H293.528L293.252 2.46468L294.148 2.90909ZM328.693 2.90909L329.68 2.74719L329.542 1.90909H328.693V2.90909ZM343.966 96V97H345.143L344.953 95.8381L343.966 96ZM316.693 96L315.702 96.1336L315.819 97H316.693V96ZM307.602 28.5455L308.593 28.4119L308.477 27.5455H307.602V28.5455ZM306.875 28.5455V27.5455H306.239L305.97 28.1208L306.875 28.5455ZM276.33 59.2727V58.2727H275.488L275.344 59.1022L276.33 59.2727ZM327.602 59.2727L328.588 59.4433L328.79 58.2727H327.602V59.2727ZM324.33 78.1818V79.1818H325.171L325.315 78.3524L324.33 78.1818ZM273.057 78.1818L272.071 78.0113L271.869 79.1818H273.057V78.1818ZM275.239 95H247.966V97H275.239V95ZM248.862 96.4444L295.044 3.3535L293.252 2.46468L247.07 95.5556L248.862 96.4444ZM294.148 3.90909H328.693V1.90909H294.148V3.90909ZM327.706 3.07099L342.979 96.1619L344.953 95.8381L329.68 2.74719L327.706 3.07099ZM343.966 95H316.693V97H343.966V95ZM317.684 95.8664L308.593 28.4119L306.611 28.679L315.702 96.1336L317.684 95.8664ZM307.602 27.5455H306.875V29.5455H307.602V27.5455ZM305.97 28.1208L274.333 95.5754L276.144 96.4246L307.78 28.9701L305.97 28.1208ZM276.33 60.2727H327.602V58.2727H276.33V60.2727ZM326.617 59.1022L323.344 78.0113L325.315 78.3524L328.588 59.4433L326.617 59.1022ZM324.33 77.1818H273.057V79.1818H324.33V77.1818ZM274.042 78.3524L277.315 59.4433L275.344 59.1022L272.071 78.0113L274.042 78.3524ZM474.886 37.8182V38.8182H475.811L475.883 37.8965L474.886 37.8182ZM449.614 37.8182L448.617 37.734L448.526 38.8182H449.614V37.8182ZM449.25 32L448.279 32.2385V32.2385L449.25 32ZM447.068 27.5455L446.291 28.1747L446.298 28.1838L447.068 27.5455ZM443.023 24.6364L442.651 25.5648L443.023 24.6364ZM425.205 26.9545L425.735 27.8021L425.74 27.7988L425.205 26.9545ZM416.523 36.3636L417.393 36.857L417.394 36.8542L416.523 36.3636ZM411.614 50.9091L410.628 50.7395L410.627 50.7475L410.626 50.7554L411.614 50.9091ZM411.523 64.5L410.546 64.7135L410.548 64.7213L411.523 64.5ZM416.295 72.5909L415.692 73.3885L415.697 73.3921L416.295 72.5909ZM432.614 74.3636L432.342 73.4011L432.339 73.4021L432.614 74.3636ZM438.341 71.7727L438.899 72.6025L438.902 72.6002L438.341 71.7727ZM442.659 67.6818L441.861 67.0794L441.859 67.0818L442.659 67.6818ZM445.432 62.3636V61.3636H444.707L444.482 62.0519L445.432 62.3636ZM470.886 62.3636L471.857 62.6027L472.162 61.3636H470.886V62.3636ZM465.705 74.4545L466.559 74.9737L466.561 74.9709L465.705 74.4545ZM456.068 85.7727L456.724 86.5275L456.728 86.5246L456.068 85.7727ZM442.159 94.0909L441.79 93.1617L442.159 94.0909ZM401.568 91.5455L401.05 92.4008L401.052 92.4019L401.568 91.5455ZM387.841 74.8182L386.907 75.1769L386.909 75.1803L387.841 74.8182ZM386.159 48L385.173 47.8356L385.172 47.8411L386.159 48ZM414.432 6.86363L414.87 7.76258L414.432 6.86363ZM453.614 4.04545L453.297 4.99413L453.299 4.99472L453.614 4.04545ZM465.841 11.0909L465.158 11.8211L465.165 11.8275L465.841 11.0909ZM473.205 22.4091L474.148 22.0776L473.205 22.4091ZM474.886 36.8182H449.614V38.8182H474.886V36.8182ZM450.61 37.9024C450.799 35.665 450.676 33.614 450.221 31.7615L448.279 32.2385C448.672 33.8405 448.792 35.6683 448.617 37.734L450.61 37.9024ZM450.221 31.7615C449.765 29.9026 448.974 28.2773 447.838 26.9071L446.298 28.1838C447.223 29.2984 447.887 30.6429 448.279 32.2385L450.221 31.7615ZM447.845 26.9163C446.698 25.4982 445.204 24.4317 443.394 23.7079L442.651 25.5648C444.175 26.1743 445.378 27.0472 446.291 28.1747L447.845 26.9163ZM443.394 23.7079C441.581 22.9827 439.464 22.6364 437.068 22.6364V24.6364C439.278 24.6364 441.131 24.9567 442.651 25.5648L443.394 23.7079ZM437.068 22.6364C432.468 22.6364 428.325 23.7891 424.669 26.1103L425.74 27.7988C429.053 25.6958 432.82 24.6364 437.068 24.6364V22.6364ZM424.674 26.107C421.028 28.3894 418.025 31.6574 415.651 35.8731L417.394 36.8542C419.627 32.888 422.411 29.8834 425.735 27.8021L424.674 26.107ZM415.653 35.8703C413.282 40.0511 411.613 45.0141 410.628 50.7395L412.599 51.0786C413.554 45.5313 415.158 40.7974 417.393 36.857L415.653 35.8703ZM410.626 50.7554C409.767 56.2773 409.722 60.9425 410.546 64.7135L412.5 64.2865C411.748 60.8454 411.764 56.4499 412.602 51.0628L410.626 50.7554ZM410.548 64.7213C411.405 68.4986 413.098 71.4258 415.692 73.3885L416.899 71.7934C414.766 70.1803 413.277 67.7136 412.498 64.2787L410.548 64.7213ZM415.697 73.3921C418.307 75.341 421.64 76.2727 425.614 76.2727V74.2727C421.951 74.2727 419.072 73.4165 416.894 71.7897L415.697 73.3921ZM425.614 76.2727C428.238 76.2727 430.665 75.9603 432.888 75.3252L432.339 73.4021C430.32 73.9791 428.08 74.2727 425.614 74.2727V76.2727ZM432.885 75.3262C435.127 74.6946 437.135 73.7892 438.899 72.6024L437.783 70.943C436.213 71.9987 434.403 72.8206 432.342 73.4011L432.885 75.3262ZM438.902 72.6002C440.687 71.3892 442.208 69.9497 443.459 68.2818L441.859 67.0818C440.746 68.5655 439.389 69.8533 437.779 70.9453L438.902 72.6002ZM443.457 68.2842C444.737 66.589 445.712 64.7178 446.382 62.6754L444.482 62.0519C443.879 63.8882 443.006 65.5625 441.861 67.0794L443.457 68.2842ZM445.432 63.3636H470.886V61.3636H445.432V63.3636ZM469.915 62.1246C468.974 65.9501 467.29 69.8876 464.848 73.9382L466.561 74.9709C469.088 70.7791 470.86 66.6559 471.857 62.6027L469.915 62.1246ZM464.85 73.9354C462.423 77.9314 459.279 81.6272 455.409 85.0209L456.728 86.5246C460.736 83.0092 464.017 79.1595 466.559 74.9737L464.85 73.9354ZM455.412 85.018C451.566 88.3614 447.029 91.078 441.79 93.1617L442.529 95.0201C447.956 92.8614 452.692 90.0326 456.724 86.5275L455.412 85.018ZM441.79 93.1617C436.591 95.2292 430.719 96.2727 424.159 96.2727V98.2727C430.932 98.2727 437.06 97.195 442.529 95.0201L441.79 93.1617ZM424.159 96.2727C415.581 96.2727 408.236 94.3975 402.084 90.689L401.052 92.4019C407.567 96.3297 415.283 98.2727 424.159 98.2727V96.2727ZM402.086 90.6901C395.985 86.9942 391.547 81.5987 388.773 74.4561L386.909 75.1803C389.831 82.7043 394.545 88.4603 401.05 92.4008L402.086 90.6901ZM388.774 74.4595C386.038 67.3397 385.468 58.5903 387.146 48.1589L385.172 47.8411C383.456 58.5006 384.007 67.63 386.907 75.1769L388.774 74.4595ZM387.145 48.1644C388.822 38.1034 392.122 29.7263 397.013 22.997L395.396 21.8211C390.287 28.8494 386.89 37.533 385.173 47.8356L387.145 48.1644ZM397.013 22.997C401.924 16.2413 407.876 11.1708 414.87 7.76258L413.994 5.96468C406.685 9.52618 400.485 14.8193 395.396 21.8211L397.013 22.997ZM414.87 7.76258C421.883 4.34513 429.339 2.63636 437.25 2.63636V0.63636C429.04 0.63636 421.284 2.41244 413.994 5.96468L414.87 7.76258ZM437.25 2.63636C443.254 2.63636 448.599 3.42806 453.297 4.99413L453.93 3.09677C448.992 1.45072 443.428 0.63636 437.25 0.63636V2.63636ZM453.299 4.99472C458.028 6.56118 461.973 8.84106 465.158 11.8211L466.524 10.3607C463.103 7.15894 458.896 4.74184 453.928 3.09617L453.299 4.99472ZM465.165 11.8275C468.371 14.7714 470.737 18.4026 472.261 22.7406L474.148 22.0776C472.521 17.4459 469.978 13.5316 466.517 10.3543L465.165 11.8275ZM472.261 22.7406C473.782 27.0683 474.335 32.0608 473.889 37.7399L475.883 37.8965C476.346 31.9998 475.779 26.7195 474.148 22.0776L472.261 22.7406ZM517.534 2.90909L518.521 3.07286L518.714 1.90909H517.534V2.90909ZM502.08 96V97H502.927L503.066 96.1638L502.08 96ZM476.807 96L475.82 95.8362L475.627 97H476.807V96ZM492.261 2.90909V1.90909H491.414L491.275 2.74531L492.261 2.90909ZM516.548 2.74531L501.093 95.8362L503.066 96.1638L518.521 3.07286L516.548 2.74531ZM502.08 95H476.807V97H502.08V95ZM477.793 96.1638L493.248 3.07286L491.275 2.74531L475.82 95.8362L477.793 96.1638ZM492.261 3.90909H517.534V1.90909H492.261V3.90909ZM610.057 2.90909L611.043 3.07286L611.237 1.90909H610.057V2.90909ZM594.602 96V97H595.45L595.589 96.1638L594.602 96ZM573.511 96L572.624 96.4617L572.904 97H573.511V96ZM548.057 47.0909L548.944 46.6292L548.664 46.0909H548.057V47.0909ZM547.511 47.0909V46.0909H546.665L546.525 46.9259L547.511 47.0909ZM539.33 96V97H540.176L540.316 96.165L539.33 96ZM514.057 96L513.07 95.8362L512.877 97H514.057V96ZM529.511 2.90909V1.90909H528.664L528.525 2.74531L529.511 2.90909ZM550.966 2.90909L551.855 2.45129L551.576 1.90909H550.966V2.90909ZM576.057 51.6364L575.168 52.0942L575.447 52.6364H576.057V51.6364ZM576.784 51.6364V52.6364H577.633L577.771 51.7984L576.784 51.6364ZM584.784 2.90909V1.90909H583.935L583.797 2.74708L584.784 2.90909ZM609.07 2.74531L593.616 95.8362L595.589 96.1638L611.043 3.07286L609.07 2.74531ZM594.602 95H573.511V97H594.602V95ZM574.398 95.5383L548.944 46.6292L547.17 47.5526L572.624 96.4617L574.398 95.5383ZM548.057 46.0909H547.511V48.0909H548.057V46.0909ZM546.525 46.9259L538.343 95.835L540.316 96.165L548.498 47.2559L546.525 46.9259ZM539.33 95H514.057V97H539.33V95ZM515.043 96.1638L530.498 3.07286L528.525 2.74531L513.07 95.8362L515.043 96.1638ZM529.511 3.90909H550.966V1.90909H529.511V3.90909ZM550.077 3.36689L575.168 52.0942L576.946 51.1786L551.855 2.45129L550.077 3.36689ZM576.057 52.6364H576.784V50.6364H576.057V52.6364ZM577.771 51.7984L585.771 3.0711L583.797 2.74708L575.797 51.4743L577.771 51.7984ZM584.784 3.90909H610.057V1.90909H584.784V3.90909ZM606.557 96L605.57 95.8362L605.377 97H606.557V96ZM622.011 2.90909V1.90909H621.164L621.025 2.74531L622.011 2.90909ZM689.102 2.90909L690.088 3.07634L690.286 1.90909H689.102V2.90909ZM685.648 23.2727V24.2727H686.492L686.634 23.44L685.648 23.2727ZM643.83 23.2727V22.2727H642.976L642.842 23.1156L643.83 23.2727ZM641.284 39.2727L640.297 39.1156L640.112 40.2727H641.284V39.2727ZM679.648 39.2727L680.634 39.44L680.832 38.2727H679.648V39.2727ZM676.193 59.6364V60.6364H677.038L677.179 59.8036L676.193 59.6364ZM637.83 59.6364V58.6364H636.976L636.842 59.4792L637.83 59.6364ZM635.284 75.6364L634.297 75.4792L634.112 76.6364H635.284V75.6364ZM676.92 75.6364L677.906 75.8036L678.104 74.6364H676.92V75.6364ZM673.466 96V97H674.311L674.452 96.1673L673.466 96ZM607.543 96.1638L622.998 3.07286L621.025 2.74531L605.57 95.8362L607.543 96.1638ZM622.011 3.90909H689.102V1.90909H622.011V3.90909ZM688.116 2.74183L684.662 23.1055L686.634 23.44L690.088 3.07634L688.116 2.74183ZM685.648 22.2727H643.83V24.2727H685.648V22.2727ZM642.842 23.1156L640.297 39.1156L642.272 39.4298L644.817 23.4298L642.842 23.1156ZM641.284 40.2727H679.648V38.2727H641.284V40.2727ZM678.662 39.1055L675.207 59.4691L677.179 59.8036L680.634 39.44L678.662 39.1055ZM676.193 58.6364H637.83V60.6364H676.193V58.6364ZM636.842 59.4792L634.297 75.4792L636.272 75.7935L638.817 59.7935L636.842 59.4792ZM635.284 76.6364H676.92V74.6364H635.284V76.6364ZM675.935 75.4691L672.48 95.8327L674.452 96.1673L677.906 75.8036L675.935 75.4691ZM673.466 95H606.557V97H673.466V95Z" fill="#FFFBFB" mask="url(#path-1-outside-1_1_60)"/>
</g>
<defs>
<filter id="filter0_d_1_60" x="0.896179" y="0.636353" width="696.39" height="104.636" filterUnits="userSpaceOnUse" color-interpolation-filters="sRGB">
<feFlood flood-opacity="0" result="BackgroundImageFix"/>
<feColorMatrix in="SourceAlpha" type="matrix" values="0 0 0 0 0 0 0 0 0 0 0 0 0 0 0 0 0 0 127 0" result="hardAlpha"/>
<feOffset dx="7" dy="7"/>
<feComposite in2="hardAlpha" operator="out"/>
<feColorMatrix type="matrix" values="0 0 0 0 0 0 0 0 0 0 0 0 0 0 0 0 0 0 1 0"/>
<feBlend mode="normal" in2="BackgroundImageFix" result="effect1_dropShadow_1_60"/>
<feBlend mode="normal" in="SourceGraphic" in2="effect1_dropShadow_1_60" result="shape"/>
</filter>
</defs>
</svg>
